<svg xmlns="http://www.w3.org/2000/svg" viewBox="0 0 109.13 79.69"><defs><style>.cls-1{fill:#717070;}</style></defs><g id="Warstwa_2" data-name="Warstwa 2"><g id="Warstwa_1-2" data-name="Warstwa 1"><path class="cls-1" d="M20.66,78.24c-.11.07-.26-.22,0,0,.21.9-.15,1.39-1.07,1.45a1.79,1.79,0,0,1-1.86-1.21c-.28-.72-.24-1.59-1.38-1.6-3.81,0-6.76-1.21-8.38-5.17-.55-1.34-2.84-1.51-3.8-3.36C2.85,65.84,2.24,63.45,3,60.81a2.82,2.82,0,0,0-.68-2.71c-1.85-2.64-3.6-5.36-1-8.55C2,48.72,1.25,48,1,47.37A9.12,9.12,0,0,1,3.22,37.28c.4-.32.9-.51.66-1.16-1.11-2.9-.88-5,2.41-6.63,1.12-.54,1.8-2.63,3-3.91a8,8,0,0,1,8-2.35c1.74.34,3.08.68,2.64-2s.28-6.23,1.74-7.15c2.47-1.53,3.93-3.91,5.74-5.74,2.29-2.32,5,0,7-2,.87-.82,2.47.65,3.66,1.29,1.72.92,3.07,1.56,3.24-1.49C41.57,2.25,44.43.29,48.42,1c1.19.21,1.75-1.06,2.74-1,2.62.17,5.25.47,7.43,2.08,1.24.91,2.32,1.78,4,1.48A2.12,2.12,0,0,1,65,5c1.23,2.71,3.94,4.8,3.35,8.29-.12.7.52.89,1,.36,1.31-1.55,3.41-.86,4.9-1.83.11-.07.29,0,.42-.08,2.23-.7,3,2,4.88,2.11s3.3.15,4,2.74c.91,3.14,2.89,6.11,7.17,5.49.35,0,1.07.25,1.1.47.48,3.09,3.34,3,5.31,4a4.26,4.26,0,0,1,2.31,2.66c.51,1.77,3.05,1.74,3.43,3.95s.88,4.54,3.07,6.49a7.26,7.26,0,0,1,1.81,6.55,1.67,1.67,0,0,0,0,1.23c2.37,3.43,1.21,6.44-1.07,9.29a2,2,0,0,0-.22,2.18c1.69,5.24.85,8-3.32,11.35a2.1,2.1,0,0,0-.64.81c-1.45,3.88-3.87,5.49-8.06,5.29a2.25,2.25,0,0,0-1.82.34c-5.31,4.5-11,3.54-15.36-1.93a42.37,42.37,0,0,0-14-11.43,4.41,4.41,0,0,0-5.71,1.09C56.09,66.26,55.17,70,55.17,70c-2.07-3.92-4.68-7.52-10-7.24a2.76,2.76,0,0,0-2.57,1.52A11.74,11.74,0,0,1,38,67.7c-4,1.93-6.62,5.31-9.47,8.41-2.46,2.67-4.56,3.51-7.88,2.16M93.55,71c.62.38,1.14,1.48,1.89.64s-.41-1.34-.77-2v.05a33.22,33.22,0,0,1,5.21-1.34c1.59-.17,1.84-1.07,2.05-2.26.25-1.43-.78-1.8-1.78-1.92A53,53,0,0,0,92,63.48c-1,0-2.8-.44-2.89.06-.37,2.15-1.06.19-1.39.14a12.18,12.18,0,0,1-2.41-.86c-2-.8-4.31-.38-6.16-1.68,3.72-.45,7.3,1.79,11.06.63l0,0c1.35,1.34,3.12.51,4.61.89,2.08.54,2.72-.57,3.32-2.08s.94-2.68-1.14-3.14c-.17,0-.38-.62-.32-.89.44-1.88.67-3.43-2.15-2.27-.67.28-1.07-.53-1.59-.87-2-1.3-3.83-2.25-6.55-1.26a23.46,23.46,0,0,1-8.79,1.63h0c1.92-.61,3.71-1.12,5.6-1.78,3.23-1.13,6.37-2.63,9.67-3.39,2.64-.6,7.17-3.64,7.87-6.15.13-.44.29-1.07-.2-1.08-1.54,0-2.5-1.75-4.22-1.24-1.05.31-1.77-.26-2-1.39-.49-2.32-1.65-4.4-1.61-7s-1.65-3.88-4.42-3.09c-.57.16-1.19.56-1.79-.09-1.8-2-6.41-1.1-7,1.56-.5,2.19-.8,3.89-2.88,5.49-1.8,1.39-3,3.75-5.07,5.11-.24.16-.45.34-.68.51a7.47,7.47,0,0,0,0-.94,4.1,4.1,0,0,0-3.42-3.85c-2-.53-2,1.39-2.46,2.35-1.29,2.79-2.25,5.74-3.38,8.61-.22.54-.24,1.26-1,1.48A11.25,11.25,0,0,1,61.07,47c1.56-4,2.44-8.24,4.61-12,1-1.66,1.58-4-.16-4.77-2.18-1-2.44,1.62-3,3.17-.34.9-.86,2.08-1.89.91s-2.28-2.45-.65-4.25c1-1.16.79-1.57-.72-2l-.4-.12,3.49-3.24c.34,1.15,1,1,1.45.21a1.26,1.26,0,0,0-.65-1.82c-1.48-.86-1.11-2.49-1.54-3.76-.15-.43.86-1.23-.08-1.79a1.75,1.75,0,0,0-2,.38c-.89.65-.92,1.34,0,2.1a.61.61,0,0,1-.26,1C56.3,22.32,55.6,25.28,54,27.54c.31-.95.55-1.93.95-2.85,1.69-3.87,3.42-7.72,5.15-11.57.61-1.36.67-2.43-1.21-2.56-2.42-.16-5.55,2.24-5.73,4.7-.27,3.72-.25,7.46-.36,11.19,0,.88.21,1.46,1.26,1a19.58,19.58,0,0,0-.8,2.42c-.54,2.72-1.09,8.23-1.09,8.23-.88-3.46-.22-7-.38-10.48-.17-3.68,1-7.58-1-10.94a52.55,52.55,0,0,0-3-5.07c-.36-.47-.12-1.61-.91-1.5s-.6,1.16-.6,1.83c0,3.12-1.54,4.33-4.77,3.69-3-.59-5,.9-4.68,3.53.16,1.44,3.13,2.56.49,4.34a1,1,0,0,0,.08.19c.61,1.38,1.14,2.79,1.84,4.13,3.86,7.47,7.66,15,10.1,23.08-2.76-5.53-4.58-11.5-8-16.72-2.06-3.18-2.52-7.47-6.49-9.32v.05c.57-.25,1.42-.38,1-1.28-.79-1.89-1.32-3.94-3.56-4.88-1.51-.63-3.12-1.11-4.11.32s.92,2,1.69,2.89l.51.61a3,3,0,0,1-.75-.11c-2.52-1.18-3.6.06-4,2.39-.14.77-.25,1-1.24,1.34-1.3.44-4.22,2.08-3,3.12,2.18,1.85,1.74,5.32,4.71,6.41.72.26,1.93,1.45-.29,1.76-1.5.22-1.59,1.3-1.08,2.44a8.8,8.8,0,0,0,2.48,3.21L50.14,62.45c.57.49,1.14,1.39,2,.86s.36-1.45.27-2.2c-.45-3.61-2.29-6.79-3.06-10.3.53,1.1,1,2.21,1.62,3.28.19.34.59.75.92.77.53,0,.5-.57.62-1a9.29,9.29,0,0,1,.35-.87,3.94,3.94,0,0,1,.23,1A19.82,19.82,0,0,0,54,60.18c.22.72.23,1.81,1.16,1.85s.83-1,1.19-1.63c.18-.29.38-.56.57-.83,0,.34,0,.68,0,1,0,.56-.14,1.4.14,1.6.61.44,1.16-.24,1.68-.59,2.67-1.83,5.33-3.67,8-5.48a3.92,3.92,0,0,1,1.55-.65c.34,0,.74.3,1.11.47a5.2,5.2,0,0,1-.89.5,18.67,18.67,0,0,0-5.23,3c-.61.47-1.74,1-1.45,1.68.35.84,1.41.14,2.12,0,5.12-1,10.22-1.49,15.33.07-4,0-8-.59-12,.23-.53.11-1.39-.21-1.45.49s.85.54,1.34.76c-.45.2-1.21.32-1.3.62-.19.72.69.44,1,.73,2.26,2,5.83,1.57,7.81,4.16.56.74,1.09-1.12,1.83-.2.09-.77-.6-.83-1-1.13-1.68-1.19-3.86-1.56-5.28-3.2a15.46,15.46,0,0,1,2.63.93c1.1.61,2.89-.84,3.15.21,1,4.25,5.41,2.73,7.89,4.63C85.45,70.58,90.61,69.29,93.55,71ZM13.92,61.91c.07,0,.14-.07.21-.06,3.31.48,6.52-.59,9.82-.65,2.34,0,4.66-.78,7-1.05A34.1,34.1,0,0,1,44,61c.49.13,1.39.07,1.57-.22.44-.74-.4-1.1-.86-1.47a29.9,29.9,0,0,0-5-3.82c-6.46-3.3-13.11-5.61-20.62-3.79-2.59.62-3.55,3.35-6.14,3.8-2.1.37-3.93,1.27-3.32,4,.08.36,0,.58-.4.59-3.71.13-.5,2.06-.65,3-.25,1.63,1.25,1.35,2.31,1.17a3.93,3.93,0,0,0,3-2.42Zm21.8-10.58A139.31,139.31,0,0,0,22.25,40.76a2,2,0,0,0-2.58.72c-.65,1.1.72,1.25,1.42,1.59,3,1.45,3.41,2.8,1.28,5-.81.83.23.75.44.81,4.06,1.2,8.13,2.35,12.2,3.48a2.71,2.71,0,0,0,1-.15ZM10.42,68.08c1.08,1.67,1.86,2.7,3.86,1.3a56.6,56.6,0,0,0,5.84-5.07,4.53,4.53,0,0,0,.64-1.07,5.42,5.42,0,0,0-1.39-.3,36.41,36.41,0,0,0-7.56,1.69C9.42,65.28,9.09,66.47,10.42,68.08ZM40,61.62a2.6,2.6,0,0,0-2-.71,25.77,25.77,0,0,0-9.42.67c-.78.2-1.75,0-2.29.86,1.33.46,1.88,2.56,2.87,2.47,3.3-.32,6.68-.53,9.84-1.81C39.84,62.79,40.39,62.57,40,61.62Zm-17.31,9a3.43,3.43,0,0,0,1.18-4.47,1.81,1.81,0,0,1,0-1.83c.24-.52,1.07-1.14.34-1.68s-1.44-.06-1.94.49c-2,2.16-3.93,4.37-5.87,6.58a1,1,0,0,0-.09,1.39c.51.62,1,.25,1.49-.12,1-.76,1.87-1.31,3-.13C21.38,71.47,22.1,71,22.72,70.58ZM20,50.57l.89-.89-1-.77a5.73,5.73,0,0,0-7.26-.37c-.73.47-2.4-.27-2.23,1.27s1.44.83,2.39.69a4.64,4.64,0,0,1,1.24.2A17.14,17.14,0,0,0,20,50.57ZM11.14,36.25c-.78.49-1.22,1.14-.66,1.92a2.77,2.77,0,0,0,3.71.87c.82-.37,1.71-1.3.76-2.29C13.84,35.58,12.37,36.06,11.14,36.25Zm61.67-7.73c3.4-.89,4.64-7.54,2.13-8C68.52,19.27,70.56,29.11,72.81,28.52Z"/><path class="cls-1" d="M88.66,44.54c1.4-1.22,2.8-2.45,4.22-3.66a3.35,3.35,0,0,1,.71-.35,2.34,2.34,0,0,1-.4.71c-4,3.48-5.44,4.3-10.15,8-.21.18-1.8,1.2-2.05,1.33.08-.15-1.31.62-1.19.51,2.61-2.42,6.07-4.35,8.69-6.77Z"/></g></g></svg>